# xmcd
#
# Track frame offsets: 
#        150
#        24689
#        49171
#        73660
#
# Disc length: 1305 seconds
#
# Revision: 0
# Processed by: cddbd v1.5.1PL2 Copyright (c) Steve Scherf et al.
# Submitted via: ExactAudioCopy v0.95a5
#
DISCID=33051704
DTITLE=SweetS - Color of tears
DYEAR=2006
DGENRE=JPop
TTITLE0=Color of tears
TTITLE1=Dear my friends
TTITLE2=Color of tears-Instrumental-
TTITLE3=Dear my friends-Instrumental-
EXTD=
EXTT0=
EXTT1=
EXTT2=
EXTT3=
PLAYORDER=
